<svg width="1272" height="335" viewBox="0 0 1272 335" fill="none" xmlns="http://www.w3.org/2000/svg">
<path d="M238.362 154.749C226.882 154.749 215.392 154.599 203.912 154.799C197.262 154.919 196.322 152.599 199.522 147.109C213.072 123.869 226.322 100.469 239.982 77.2986C249.812 60.6286 265.192 52.0386 284.062 51.2086C305.802 50.2486 327.612 50.9586 349.392 50.8086C355.552 50.7686 358.982 51.9986 354.942 58.8586C340.482 83.3986 326.632 108.319 311.442 132.399C301.722 147.809 286.352 154.729 268.062 154.759C258.162 154.759 248.262 154.749 238.362 154.749Z" fill="#F5C000"/>
<path d="M314.212 282.879C303.592 282.179 290.132 283.969 276.742 281.789C261.392 279.289 249.242 271.549 241.282 258.469C227.102 235.189 213.782 211.399 199.912 187.929C195.842 181.049 197.972 179.119 205.272 179.199C227.412 179.429 249.582 178.749 271.702 179.569C289.832 180.249 304.262 189.079 313.712 204.599C327.472 227.199 340.492 250.249 353.992 273.009C358.572 280.719 356.742 283.399 347.852 282.979C337.582 282.509 327.282 282.879 314.212 282.879Z" fill="#F5C000"/>
<path d="M107.852 179.339C118.132 179.359 128.422 178.989 138.682 179.439C157.332 180.259 172.292 188.509 181.922 204.469C195.382 226.769 207.802 249.699 220.942 272.199C225.342 279.739 225.232 283.409 215.012 283.189C194.862 282.759 174.692 283.249 154.542 282.819C134.672 282.389 118.592 274.489 108.262 256.849C94.9023 234.029 81.7123 211.119 68.3523 188.309C64.6823 182.049 65.4323 179.039 73.4723 179.259C84.9223 179.549 96.3823 179.319 107.852 179.339Z" fill="#F5C000"/>
<path d="M106.682 154.698C95.2123 154.698 83.7423 154.598 72.2723 154.738C65.7923 154.818 64.5223 152.138 67.6123 146.848C82.5323 121.258 96.5823 95.0984 112.802 70.3484C121.642 56.8584 137.112 51.5884 153.182 51.1584C174.132 50.5884 195.102 50.9783 216.062 50.8883C222.282 50.8583 226.902 51.6584 222.142 59.4184C207.502 83.2684 195.192 108.478 179.022 131.458C167.562 147.748 152.412 155.278 132.782 154.828C124.082 154.628 115.382 154.798 106.682 154.798C106.682 154.758 106.682 154.728 106.682 154.698Z" fill="white"/>
<path d="M447.472 99.2285H380.092C373.722 99.2285 368.552 94.0584 368.552 87.6884C368.552 81.3184 373.712 76.1484 380.092 76.1484H447.472C453.842 76.1484 459.012 81.3184 459.012 87.6884C459.002 94.0684 453.842 99.2285 447.472 99.2285Z" fill="white"/>
<path d="M447.472 263.129H380.092C373.722 263.129 368.552 257.959 368.552 251.589C368.552 245.219 373.712 240.049 380.092 240.049H447.472C453.842 240.049 459.012 245.219 459.012 251.589C459.002 257.959 453.842 263.129 447.472 263.129Z" fill="white"/>
<path d="M447.472 179.768H336.272C329.902 179.768 324.732 174.599 324.732 168.229C324.732 161.859 329.902 156.688 336.272 156.688H447.472C453.842 156.688 459.012 161.859 459.012 168.229C459.002 174.599 453.842 179.768 447.472 179.768Z" fill="white"/>
<path d="M355.582 308.649C352.212 306.919 349.002 306.969 347.462 307.089C325.182 307.219 232.442 307.719 125.842 307.519C121.552 307.509 111.582 307.389 100.712 302.289C87.8023 296.229 77.4024 284.929 69.4424 268.459C54.5224 237.569 40.4923 206.029 26.0023 174.819C23.7823 170.039 23.0523 165.929 25.5823 160.549C40.2223 129.449 54.3623 97.9886 69.0223 66.8886C76.9123 50.1586 87.1823 38.7886 99.8323 32.4286C111.692 26.4686 122.852 26.3286 127.782 26.3086C168.992 26.1986 247.302 26.0386 348.442 26.6486C350.052 26.7286 352.712 26.6487 355.592 25.4087C359.732 23.6187 365.162 19.0586 364.982 12.8886C364.782 5.87864 357.462 1.49865 352.462 0.368648C350.842 -0.00135249 349.422 -0.0313586 348.402 0.0186414C310.032 0.128641 271.652 0.248638 233.282 0.358638C233.282 0.338638 233.282 0.308661 233.282 0.288661C196.182 0.288661 159.092 -0.0213635 121.992 0.388637C92.1723 0.708637 68.8123 17.2287 53.3023 48.2787C35.8323 83.2587 20.1423 119.599 3.09234 154.929C-1.34766 164.119 -0.777656 171.349 3.34234 179.959C19.3023 213.309 34.8224 246.979 50.7624 280.339C61.4924 302.779 75.4223 318.019 92.6123 326.289C107.802 333.589 121.802 333.659 127.682 333.689C168.842 333.879 246.532 334.309 347.382 333.759C348.992 333.879 352.242 333.889 355.582 332.119C359.342 330.129 363.762 325.599 363.402 319.599C363.002 312.599 356.412 309.079 355.582 308.649Z" fill="white"/>
<path d="M863.132 59.3282C863.132 54.5382 867.012 50.6582 871.802 50.6582H965.612C992.672 50.6582 1014.29 57.7582 1030.49 71.9482C1046.68 86.1482 1054.78 105.998 1054.78 131.498C1054.78 157.668 1046.74 177.908 1030.66 192.218C1014.57 206.528 992.902 213.678 965.622 213.678H922.032V274.548C922.032 279.338 918.152 283.218 913.362 283.218H871.802C867.012 283.218 863.132 279.338 863.132 274.548V59.3282ZM956.292 164.108C968.042 164.108 977.302 161.668 984.072 156.788C990.832 151.908 994.222 143.478 994.222 131.498C994.222 119.518 990.892 111.318 984.242 106.878C977.592 102.438 968.272 100.228 956.292 100.228H922.022V164.108H956.292Z" fill="white"/>
<path d="M585.632 50.4883H627.992C631.362 50.4883 634.432 52.4383 635.852 55.4983L700.722 194.548L765.922 55.4783C767.352 52.4283 770.412 50.4883 773.782 50.4883H815.822C820.612 50.4883 824.502 54.3683 824.502 59.1683V274.378C824.502 279.168 820.622 283.058 815.822 283.058H778.282C773.492 283.058 769.602 279.178 769.602 274.378V166.278L716.392 278.108C714.952 281.128 711.902 283.058 708.552 283.058H692.912C689.552 283.058 686.502 281.128 685.072 278.088L632.192 166.278V274.378C632.192 279.168 628.312 283.058 623.512 283.058H585.632C580.842 283.058 576.952 279.178 576.952 274.378V59.1683C576.962 54.3683 580.842 50.4883 585.632 50.4883Z" fill="white"/>
<path d="M1271.98 194.579C1272.08 190.759 1272.27 170.339 1258.23 158.009C1256.55 156.529 1249.75 151.359 1239.67 147.969C1239.11 147.779 1238.7 147.649 1238.38 147.549C1233.03 145.869 1224.77 143.959 1212.85 143.519H1144.32C1142.41 143.359 1139.11 142.789 1136.24 140.409C1132.57 137.349 1130.86 133.189 1130.87 128.319C1130.87 123.989 1130.87 119.649 1130.87 115.319L1130.88 115.309C1131.01 112.239 1132.07 109.759 1135.79 106.369C1135.97 106.209 1136.15 106.049 1136.33 105.899C1138.08 104.439 1141.72 102.919 1149.13 102.919L1151.29 102.929L1259.87 102.789C1264.66 102.789 1268.54 98.9086 1268.54 94.1186V61.7286C1268.54 56.9386 1264.66 53.0586 1259.87 53.0586C1211.49 53.0586 1163.12 53.0586 1114.74 53.0586C1110.52 53.6286 1097.65 55.9086 1086.83 66.8786C1073.2 80.7086 1073.05 98.0086 1073.08 101.429V141.739C1073.16 148.329 1074.27 165.509 1086.83 178.309C1095.48 187.119 1105.96 190.439 1108.68 191.239C1113.23 192.579 1117.22 193.049 1120.13 193.219C1174.47 192.929 1198.21 192.969 1202.09 193.219C1202.1 193.219 1202.1 193.219 1202.1 193.219C1202.1 193.219 1205.56 193.439 1208.81 195.909C1212.47 198.679 1214.19 205.309 1214.18 207.999C1214.18 212.479 1214.18 213.039 1214.18 217.529C1214.18 219.779 1213.59 225.919 1212.38 227.809C1212.29 227.959 1212.19 228.099 1212.09 228.249C1210.78 230.109 1209.14 231.359 1207.58 232.189C1205.92 233.069 1204.06 233.509 1202.18 233.529C1201.62 233.539 1201.13 233.539 1200.75 233.529C1162.1 233.529 1123.44 233.529 1084.79 233.529C1080 233.529 1076.12 237.409 1076.12 242.199V274.539C1076.12 279.329 1080 283.199 1084.78 283.209L1230.3 283.249C1234.52 282.679 1247.39 280.399 1258.21 269.429C1271.84 255.599 1271.99 238.299 1271.96 234.879V194.579H1271.98Z" fill="white"/>
</svg>
