<svg width="1273" height="335" viewBox="0 0 1273 335" fill="none" xmlns="http://www.w3.org/2000/svg">
<path d="M239.36 155.72C227.88 155.72 216.39 155.57 204.91 155.77C198.26 155.89 197.32 153.57 200.52 148.08C214.07 124.84 227.32 101.44 240.98 78.2703C250.81 61.6003 266.19 53.0103 285.06 52.1803C306.8 51.2203 328.61 51.9303 350.39 51.7803C356.55 51.7403 359.98 52.9703 355.94 59.8303C341.48 84.3703 327.63 109.29 312.44 133.37C302.72 148.78 287.35 155.7 269.06 155.73C259.16 155.73 249.26 155.72 239.36 155.72Z" fill="#F5C000"/>
<path d="M315.21 283.85C304.59 283.15 291.13 284.94 277.74 282.76C262.39 280.26 250.24 272.52 242.28 259.44C228.1 236.16 214.78 212.37 200.91 188.9C196.84 182.02 198.97 180.09 206.27 180.17C228.41 180.4 250.58 179.72 272.7 180.54C290.83 181.22 305.26 190.05 314.71 205.57C328.47 228.17 341.49 251.22 354.99 273.98C359.57 281.69 357.74 284.37 348.85 283.95C338.58 283.48 328.28 283.85 315.21 283.85Z" fill="#F5C000"/>
<path d="M108.85 180.311C119.13 180.331 129.42 179.961 139.68 180.411C158.33 181.231 173.29 189.481 182.92 205.441C196.38 227.741 208.8 250.671 221.94 273.171C226.34 280.711 226.23 284.381 216.01 284.161C195.86 283.731 175.69 284.221 155.54 283.791C135.67 283.361 119.59 275.461 109.26 257.821C95.8999 235.001 82.7099 212.091 69.3499 189.281C65.6799 183.021 66.4299 180.011 74.4699 180.231C85.9199 180.521 97.3799 180.291 108.85 180.311Z" fill="#F5C000"/>
<path d="M107.68 155.67C96.2099 155.67 84.7399 155.57 73.2699 155.71C66.7899 155.79 65.5199 153.11 68.6099 147.82C83.5299 122.23 97.5799 96.07 113.8 71.32C122.64 57.83 138.11 52.56 154.18 52.13C175.13 51.56 196.1 51.95 217.06 51.86C223.28 51.83 227.9 52.6301 223.14 60.3901C208.5 84.2401 196.19 109.45 180.02 132.43C168.56 148.72 153.41 156.25 133.78 155.8C125.08 155.6 116.38 155.77 107.68 155.77C107.68 155.73 107.68 155.7 107.68 155.67Z" fill="#008A3F"/>
<path d="M448.47 100.2H381.09C374.72 100.2 369.55 95.0301 369.55 88.6601C369.55 82.2901 374.71 77.1201 381.09 77.1201H448.47C454.84 77.1201 460.01 82.2901 460.01 88.6601C460 95.0401 454.84 100.2 448.47 100.2Z" fill="#008A3F"/>
<path d="M448.47 264.1H381.09C374.72 264.1 369.55 258.93 369.55 252.56C369.55 246.19 374.71 241.021 381.09 241.021H448.47C454.84 241.021 460.01 246.19 460.01 252.56C460 258.93 454.84 264.1 448.47 264.1Z" fill="#008A3F"/>
<path d="M448.47 180.74H337.27C330.9 180.74 325.73 175.57 325.73 169.2C325.73 162.83 330.9 157.66 337.27 157.66H448.47C454.84 157.66 460.01 162.83 460.01 169.2C460 175.57 454.84 180.74 448.47 180.74Z" fill="#008A3F"/>
<path d="M356.58 309.62C353.21 307.89 350 307.94 348.46 308.06C326.18 308.19 233.44 308.69 126.84 308.49C122.55 308.48 112.58 308.36 101.71 303.26C88.7999 297.2 78.3999 285.9 70.4399 269.43C55.5199 238.54 41.4899 207 26.9999 175.79C24.7799 171.01 24.0499 166.9 26.5799 161.52C41.2199 130.42 55.3599 98.9603 70.0199 67.8603C77.9099 51.1303 88.1799 39.7603 100.83 33.4003C112.69 27.4403 123.85 27.3003 128.78 27.2803C169.99 27.1703 248.3 27.0103 349.44 27.6203C351.05 27.7003 353.71 27.6203 356.59 26.3803C360.73 24.5903 366.16 20.0303 365.98 13.8603C365.78 6.85032 358.46 2.47033 353.46 1.34033C351.84 0.970327 350.42 0.940321 349.4 0.990321C311.03 1.10032 272.65 1.22032 234.28 1.33032C234.28 1.31032 234.28 1.28034 234.28 1.26034C197.18 1.26034 160.09 0.950316 122.99 1.36032C93.1699 1.68032 69.8099 18.2003 54.2999 49.2503C36.8299 84.2303 21.1399 120.57 4.0899 155.9C-0.350097 165.09 0.219903 172.32 4.3399 180.93C20.2999 214.28 35.8199 247.95 51.7599 281.31C62.4899 303.75 76.4199 318.99 93.6099 327.26C108.8 334.56 122.8 334.63 128.68 334.66C169.84 334.85 247.53 335.28 348.38 334.73C349.99 334.85 353.24 334.86 356.58 333.09C360.34 331.1 364.76 326.57 364.4 320.57C364 313.57 357.41 310.05 356.58 309.62Z" fill="#008A3F"/>
<path d="M864.13 60.2999C864.13 55.5099 868.01 51.6299 872.8 51.6299H966.61C993.67 51.6299 1015.29 58.7299 1031.49 72.9199C1047.68 87.1199 1055.78 106.97 1055.78 132.47C1055.78 158.64 1047.74 178.88 1031.66 193.19C1015.57 207.5 993.9 214.65 966.62 214.65H923.03V275.52C923.03 280.31 919.15 284.19 914.36 284.19H872.8C868.01 284.19 864.13 280.31 864.13 275.52V60.2999ZM957.29 165.08C969.04 165.08 978.3 162.64 985.07 157.76C991.83 152.88 995.22 144.45 995.22 132.47C995.22 120.49 991.89 112.29 985.24 107.85C978.59 103.41 969.27 101.2 957.29 101.2H923.02V165.08H957.29Z" fill="#008A3F"/>
<path d="M586.63 51.46H628.99C632.36 51.46 635.43 53.41 636.85 56.47L701.72 195.52L766.92 56.45C768.35 53.4 771.41 51.46 774.78 51.46H816.82C821.61 51.46 825.5 55.34 825.5 60.14V275.35C825.5 280.14 821.62 284.03 816.82 284.03H779.28C774.49 284.03 770.6 280.15 770.6 275.35V167.25L717.39 279.08C715.95 282.1 712.9 284.03 709.55 284.03H693.91C690.55 284.03 687.5 282.1 686.07 279.06L633.19 167.25V275.35C633.19 280.14 629.31 284.03 624.51 284.03H586.63C581.84 284.03 577.95 280.15 577.95 275.35V60.14C577.96 55.34 581.84 51.46 586.63 51.46Z" fill="#008A3F"/>
<path d="M1272.98 195.55C1273.08 191.73 1273.27 171.31 1259.23 158.98C1257.55 157.5 1250.75 152.33 1240.67 148.94C1240.11 148.75 1239.7 148.62 1239.38 148.52C1234.03 146.84 1225.77 144.93 1213.85 144.49H1145.32C1143.41 144.33 1140.11 143.76 1137.24 141.38C1133.57 138.32 1131.86 134.16 1131.87 129.29C1131.87 124.96 1131.87 120.62 1131.87 116.29L1131.88 116.28C1132.01 113.21 1133.07 110.73 1136.79 107.34C1136.97 107.18 1137.15 107.02 1137.33 106.87C1139.08 105.41 1142.72 103.89 1150.13 103.89L1152.29 103.9L1260.87 103.76C1265.66 103.76 1269.54 99.8803 1269.54 95.0903V62.7003C1269.54 57.9103 1265.66 54.0303 1260.87 54.0303C1212.49 54.0303 1164.12 54.0303 1115.74 54.0303C1111.52 54.6003 1098.65 56.8803 1087.83 67.8503C1074.2 81.6803 1074.05 98.9803 1074.08 102.4V142.71C1074.16 149.3 1075.27 166.48 1087.83 179.28C1096.48 188.09 1106.96 191.41 1109.68 192.21C1114.23 193.55 1118.22 194.02 1121.13 194.19C1175.47 193.9 1199.21 193.94 1203.09 194.19C1203.1 194.19 1203.1 194.19 1203.1 194.19C1203.1 194.19 1206.56 194.41 1209.81 196.88C1213.47 199.65 1215.19 206.28 1215.18 208.97C1215.18 213.45 1215.18 214.01 1215.18 218.5C1215.18 220.75 1214.59 226.89 1213.38 228.78C1213.29 228.93 1213.19 229.07 1213.09 229.22C1211.78 231.08 1210.14 232.33 1208.58 233.16C1206.92 234.04 1205.06 234.48 1203.18 234.5C1202.62 234.51 1202.13 234.51 1201.75 234.5C1163.1 234.5 1124.44 234.5 1085.79 234.5C1081 234.5 1077.12 238.38 1077.12 243.17V275.51C1077.12 280.3 1081 284.17 1085.78 284.18L1231.3 284.22C1235.52 283.65 1248.39 281.37 1259.21 270.4C1272.84 256.57 1272.99 239.27 1272.96 235.85V195.55H1272.98Z" fill="#008A3F"/>
</svg>
